PathFileType   4   (X/Y/Z)
DataRate	CameraRate	NumFrames	NumMarkers	Units	OrigDataRate	OrigDataStartFrame	OrigNumFrames
120.0	120.0	7	37	mm	120.0	97	110
Frame#	Time	midhip	hip_r	hip_l	knee_r	knee_l	ankle_r	ankle_l	midasis	asis_r	asis_l	psis_r	psis_l	epicondLat_r	epicondLat_l	epicondMed_r	epicondMed_l	malleolusLat_r	malleolusLat_l	malleolusMedv_r	malleolusMedv_l	neck	subclavicle_r	subclavicle_l	sternalnotch	xyphoidprocess	thighwand_r	thighwand_l	upperleg1_r	upperleg1_l	upperleg2_r	upperleg2_l	shankwand_r	shankwand_l	lowerleg1_r	lowerleg1_l	toe_r	toe_l
 	 	X1	Y1	Z1	X2	Y2	Z2	X3	Y3	Z3	X4	Y4	Z4	X5	Y5	Z5	X6	Y6	Z6	X7	Y7	Z7	X8	Y8	Z8	X9	Y9	Z9	X10	Y10	Z10	X11	Y11	Z11	X12	Y12	Z12	X13	Y13	Z13	X14	Y14	Z14	X15	Y15	Z15	X16	Y16	Z16	X17	Y17	Z17	X18	Y18	Z18	X19	Y19	Z19	X20	Y20	Z20	X21	Y21	Z21	X22	Y22	Z22	X23	Y23	Z23	X24	Y24	Z24	X25	Y25	Z25	X26	Y26	Z26	X27	Y27	Z27	X28	Y28	Z28	X29	Y29	Z29	X30	Y30	Z30	X31	Y31	Z31	X32	Y32	Z32	X33	Y33	Z33	X34	Y34	Z34	X35	Y35	Z35	X36	Y36	Z36	X37	Y37	Z37

	97	0.93333	975.658	823.754	-252.052	978.950	807.753	-189.535	971.364	803.962	-306.700	1128.580	457.283	-161.855	916.492	449.886	-294.362	1240.613	78.757	-141.080	761.210	71.552	-286.722	1031.299	888.552	-248.454	1029.373	890.268	-148.309	1033.226	886.836	-348.599	873.444	908.854	-219.821	873.418	911.061	-275.077	1134.348	464.033	-107.576	929.907	445.972	-347.040	1120.342	442.176	-210.804	907.811	437.231	-256.118	1225.763	76.307	-105.644	767.813	68.079	-324.492	1259.452	99.433	-167.866	781.619	77.849	-259.569	949.985	1326.247	-214.334	1039.649	1237.009	-177.245	1034.807	1247.353	-284.947	1024.048	1255.590	-234.223	1053.926	1083.488	-251.242	1186.366	666.127	-172.901	1072.536	595.056	-272.204	1097.681	682.906	-126.993	1014.342	645.297	-340.249	1124.198	601.695	-122.692	1002.811	558.582	-334.270	1175.376	193.074	-42.532	783.558	184.881	-396.187	1184.763	199.715	-83.430	791.040	188.837	-354.593	1347.611	92.735	-97.894	885.179	37.550	-297.349
	98	0.94167	986.969	821.794	-251.173	990.348	805.681	-188.646	982.359	801.830	-305.782	1139.978	455.694	-161.920	922.705	448.685	-294.008	1262.370	79.770	-141.645	761.827	72.567	-286.700	1042.440	886.487	-247.783	1040.857	888.249	-147.595	1044.023	884.724	-347.971	884.601	906.693	-218.778	884.477	908.887	-274.062	1145.153	462.059	-107.536	935.935	444.693	-346.727	1131.640	440.207	-210.791	916.000	434.836	-256.630	1247.445	76.818	-106.278	768.369	69.035	-324.476	1280.891	101.273	-168.193	782.255	78.444	-259.532	960.865	1324.114	-213.747	1050.273	1234.915	-176.714	1045.640	1245.206	-284.314	1034.842	1253.534	-233.656	1064.532	1081.342	-250.562	1197.609	664.034	-170.801	1080.840	591.991	-271.964	1108.170	680.369	-125.511	1023.018	642.922	-339.648	1134.525	599.036	-121.448	1011.352	556.527	-334.112	1193.478	192.272	-42.873	785.853	185.761	-396.077	1203.494	199.498	-83.734	793.295	189.458	-354.511	1369.120	96.617	-98.318	885.282	37.515	-297.425
	99	0.95000	998.358	819.956	-250.205	1001.881	803.674	-187.628	993.481	799.718	-304.733	1151.594	454.283	-162.050	929.295	447.477	-293.610	1282.448	80.622	-142.420	762.552	73.801	-286.712	1053.722	884.456	-247.019	1052.492	886.304	-146.781	1054.952	882.607	-347.257	895.824	904.604	-217.671	895.607	906.771	-272.947	1156.309	460.290	-107.583	942.307	443.440	-346.380	1143.088	438.601	-210.967	920.553	435.038	-254.720	1267.523	77.251	-107.091	769.033	70.212	-324.492	1300.801	102.942	-168.702	782.878	79.311	-259.487	971.774	1322.117	-213.135	1061.156	1232.868	-176.073	1056.606	1243.227	-283.679	1045.698	1251.515	-233.002	1075.452	1079.339	-250.008	1209.062	662.227	-169.024	1089.371	589.018	-271.746	1119.073	678.122	-124.043	1031.728	640.599	-339.054	1145.289	596.720	-120.359	1017.972	554.153	-333.298	1210.741	191.541	-43.339	788.355	186.828	-395.977	1221.371	199.385	-84.154	795.772	190.244	-354.364	1388.988	99.905	-98.932	885.394	37.507	-297.535
	100	0.95833	1009.776	818.178	-249.148	1013.572	801.769	-186.485	1004.747	797.657	-303.552	1163.432	453.055	-162.228	936.285	446.266	-293.181	1300.794	81.173	-143.424	763.397	75.284	-286.773	1065.161	882.496	-246.169	1064.295	884.475	-145.874	1066.028	880.516	-346.464	907.133	902.623	-216.502	906.828	904.740	-271.738	1167.880	458.759	-107.705	949.051	442.220	-346.010	1154.483	437.320	-211.204	921.034	438.295	-251.375	1285.913	77.462	-108.111	769.821	71.638	-324.558	1318.949	104.259	-169.523	783.526	80.479	-259.451	982.726	1320.205	-212.448	1072.239	1230.781	-175.328	1067.803	1241.288	-282.973	1056.625	1249.578	-232.262	1086.655	1077.358	-249.479	1220.692	660.754	-167.726	1098.156	586.156	-271.548	1130.404	676.245	-122.650	1040.966	638.482	-338.453	1156.505	594.767	-119.444	1022.722	551.496	-332.047	1227.051	190.789	-43.968	791.093	188.097	-395.904	1237.772	199.126	-84.662	798.687	191.185	-354.066	1407.162	102.382	-99.742	885.531	37.538	-297.670
	101	0.96667	1021.202	816.388	-247.951	1025.418	799.996	-185.225	1016.166	795.674	-302.253	1175.495	452.002	-162.447	943.690	445.058	-292.730	1317.371	81.309	-144.671	764.375	77.044	-286.905	1076.761	880.634	-245.240	1076.260	882.791	-144.884	1077.261	878.477	-345.595	918.553	900.775	-215.269	918.184	902.815	-270.417	1179.910	457.476	-107.899	956.192	441.037	-345.624	1165.869	436.280	-211.341	933.752	433.859	-254.030	1302.559	77.334	-109.358	770.752	73.339	-324.692	1335.350	105.030	-170.641	784.417	81.863	-259.501	993.724	1318.322	-211.672	1083.357	1228.892	-174.412	1078.890	1239.362	-282.132	1067.628	1247.760	-231.441	1097.840	1075.451	-248.542	1232.470	659.648	-167.015	1107.210	583.417	-271.351	1142.176	674.779	-121.478	1050.547	636.518	-337.896	1168.221	593.212	-118.751	1034.179	550.420	-332.583	1242.333	189.941	-44.792	794.103	189.580	-395.877	1252.856	198.505	-85.343	802.235	192.326	-353.610	1423.613	103.886	-100.758	885.718	37.615	-297.818
	102	0.97500	1032.968	814.980	-246.593	1037.396	798.370	-183.868	1027.741	793.787	-300.853	1187.780	451.104	-162.708	951.517	443.857	-292.267	1332.157	80.954	-146.168	765.498	79.105	-287.131	1088.511	878.887	-244.238	1088.358	881.268	-143.824	1088.665	876.506	-344.653	930.108	899.075	-213.968	929.720	901.006	-268.973	1192.409	456.432	-108.163	963.753	439.892	-345.227	1177.597	435.450	-211.260	943.734	431.614	-254.144	1317.436	76.791	-110.837	771.847	75.335	-324.916	1350.230	105.240	-171.928	785.598	83.557	-259.679	1004.781	1316.526	-210.836	1094.519	1227.236	-173.411	1089.494	1237.592	-281.313	1078.701	1246.076	-230.538	1108.656	1073.717	-247.522	1244.377	658.929	-166.934	1116.552	580.807	-271.128	1154.389	673.774	-120.708	1059.914	634.513	-337.466	1180.542	592.148	-118.352	1043.877	548.956	-332.431	1256.565	188.948	-45.826	797.417	191.286	-395.908	1266.848	197.609	-86.342	805.520	193.897	-353.554	1438.330	104.323	-101.996	885.981	37.738	-297.962
	103	0.98333	1044.870	813.638	-245.003	1049.463	796.895	-182.438	1039.467	792.004	-299.382	1200.285	450.341	-163.012	959.771	442.664	-291.795	1345.153	80.081	-147.913	766.787	81.485	-287.469	1100.395	877.257	-243.168	1100.533	879.903	-142.706	1100.257	874.611	-343.630	941.818	897.529	-212.591	941.482	899.323	-267.386	1205.357	455.604	-108.500	971.755	438.778	-344.819	1190.000	434.926	-211.175	952.081	430.562	-253.560	1330.555	75.811	-112.544	773.130	77.643	-325.248	1363.405	104.675	-173.491	786.804	85.656	-259.950	1015.886	1314.839	-209.930	1105.631	1225.738	-172.533	1100.292	1236.104	-280.413	1089.841	1244.533	-229.548	1119.651	1072.237	-246.701	1256.409	658.591	-167.446	1126.205	578.322	-270.841	1167.031	673.214	-120.426	1069.464	632.620	-337.051	1193.518	591.654	-118.363	1052.796	547.320	-332.108	1269.785	187.791	-47.073	801.071	193.221	-396.012	1279.720	196.497	-87.596	808.750	195.758	-353.820	1451.336	103.667	-103.478	886.340	37.895	-298.094
